<svg width="625" height="559" viewBox="0 0 625 559" fill="none" xmlns="http://www.w3.org/2000/svg">
<rect width="60" height="297.484" transform="matrix(-0.49661 -0.867974 -0.867974 0.49661 557.606 192.681)" fill="black"/>
<rect width="60" height="151.327" transform="matrix(-0.867974 0.49661 0.49661 0.867974 249.681 194.227)" fill="black"/>
<path fill-rule="evenodd" clip-rule="evenodd" d="M390.871 71.7727C369.23 60.4466 345.439 52.3304 320.019 48.1496C192.025 27.0986 71.2006 113.793 50.1496 241.786C29.0986 369.78 115.793 490.605 243.786 511.656C371.78 532.707 492.605 446.013 513.656 318.019C519.381 283.208 517.136 248.927 508.259 217.04L442.739 243.472C447.313 263.635 448.146 285.001 444.584 306.659C429.807 396.505 344.993 457.361 255.147 442.584C165.3 427.807 104.445 342.993 119.222 253.147C133.999 163.3 218.812 102.445 308.659 117.222C325.773 120.036 341.836 125.393 356.524 132.841L390.871 71.7727Z" fill="black"/>
</svg>
